# xmcd
#
# Track frame offsets:
# 182
# 17117
# 34990
# 51602
# 74777
# 100955
# 126600
# 146855
# 174002
# 193380
# 222782
# 240612
#
# Disc length: 3418 seconds
#
#
# Revision: 0
# Processed by: cddbd v1.4PL0 Copyright (c) Steve Scherf et al.
# Submitted via: FreeRIP 2.30 
#
DISCID=c50d580c
DTITLE=Matt O'Ree and The Blues Hounds - Chalk It Up
DYEAR=2001
DGENRE=Blues Rock
TTITLE0=Such A Shame
TTITLE1=Jump Up And Run
TTITLE2=Chalk It Up
TTITLE3=Broken Glass
TTITLE4=Mine For A Song
TTITLE5=If You Wanna Mess Around
TTITLE6=Ain't Got No Time
TTITLE7=Let Me Know
TTITLE8=Swing Time
TTITLE9=Shotgun Blues
TTITLE10=That's All Right
TTITLE11=Amazing Grace
EXTD=
EXTT0=
EXTT1=
EXTT2=
EXTT3=
EXTT4=
EXTT5=
EXTT6=
EXTT7=
EXTT8=
EXTT9=
EXTT10=
EXTT11=
PLAYORDER=
